<svg id="Layer_1" data-name="Layer 1" xmlns="http://www.w3.org/2000/svg" viewBox="0 0 48 48"><defs><style>.cls-1{fill:none;stroke:#000;stroke-linecap:round;stroke-linejoin:round;stroke-width:2px;}</style></defs><title>danger</title><path class="cls-1" d="M33,19v6.21A1.76,1.76,0,0,1,31.23,27H31v4.8l-.69.51L26.69,35H20.77l-3.12-2.65L17,31.8V27h-.23A1.76,1.76,0,0,1,15,25.24V19a5.93,5.93,0,0,1,1.77-4.26A6,6,0,0,1,21,13H27a6.07,6.07,0,0,1,5.77,4.26A6.06,6.06,0,0,1,33,19Z"/><polyline class="cls-1" points="22.9 25.65 24 24 25.1 25.65"/><rect class="cls-1" x="25" y="19" width="4" height="3" rx="1.37" ry="1.37"/><rect class="cls-1" x="19" y="19" width="4" height="3" rx="1.37" ry="1.37"/><line class="cls-1" x1="24" y1="31" x2="24" y2="32"/><line class="cls-1" x1="26" y1="31" x2="26" y2="31"/><line class="cls-1" x1="28" y1="30" x2="28" y2="31"/><line class="cls-1" x1="22" y1="31" x2="22" y2="31"/><line class="cls-1" x1="20" y1="30" x2="20" y2="31"/><path class="cls-1" d="M44,40a2,2,0,0,1-2,2,2,2,0,0,1-4,0,2,2,0,0,1,.59-1.41l-8.28-8.28L31,31.8V29l9.59,9.59A2,2,0,0,1,42,38,2,2,0,0,1,44,40Z"/><path class="cls-1" d="M9.41,40.59A2,2,0,0,1,10,42a2,2,0,0,1-4,0,2,2,0,0,1,0-4,2,2,0,0,1,1.41.59L17,29v2.8l.65.55Z"/><path class="cls-1" d="M44,8a2,2,0,0,1-2,2,2,2,0,0,1-1.41-.59l-7.85,7.85a6.06,6.06,0,0,0-1.51-2.49l7.36-7.36A2,2,0,0,1,38,6a2,2,0,0,1,4,0A2,2,0,0,1,44,8Z"/><path class="cls-1" d="M16.77,14.77a6.06,6.06,0,0,0-1.51,2.49L7.41,9.41A2,2,0,0,1,6,10,2,2,0,0,1,6,6a2,2,0,0,1,4,0,2,2,0,0,1-.59,1.41Z"/><rect class="cls-1" x="-88" y="-564" width="700" height="700"/></svg>