<?xml version="1.0" encoding="utf-8"?>
<!-- Generator: Adobe Illustrator 18.0.0, SVG Export Plug-In . SVG Version: 6.00 Build 0)  -->
<!DOCTYPE svg PUBLIC "-//W3C//DTD SVG 1.1//EN" "http://www.w3.org/Graphics/SVG/1.1/DTD/svg11.dtd">
<svg version="1.1" id="Icon_Set" xmlns="http://www.w3.org/2000/svg" xmlns:xlink="http://www.w3.org/1999/xlink" x="0px" y="0px"
	 viewBox="0 0 256 256" style="enable-background:new 0 0 256 256;" xml:space="preserve">
<style type="text/css">
	.st0{fill:#484771;}
	.st1{fill:#F1C48B;}
	.st2{fill:#D5E6F7;}
	.st3{fill:#A0D1F2;}
	.st4{fill:#FD919F;}
	.st5{fill:#E0667D;}
	.st6{fill:#504774;}
	.st7{fill:#7BACF1;}
	.st8{fill:#FFFFFF;}
	.st9{fill:#D4E7F8;}
	.st10{fill:#A3D0F1;}
	.st11{fill:#4C4372;}
	.st12{fill:#7BABF3;}
	.st13{fill:#FD919E;}
	.st14{fill:#D3E6F8;}
	.st15{fill:#E8677D;}
	.st16{fill:#A4CFF2;}
</style>
<g>
	<g>
		<circle class="st1" cx="128" cy="128" r="103.873"/>
	</g>
	<g>
		<path class="st8" d="M199.649,118.706c0-40.525-33.644-73.191-74.524-71.593c-36.964,1.446-67.094,31.435-68.704,68.393
			c-1.054,24.2,9.916,45.875,27.418,59.599v25.108c0,4.822,3.909,8.731,8.731,8.731h70.86c4.822,0,8.731-3.909,8.731-8.731v-25.108
			C188.888,161.989,199.649,141.61,199.649,118.706z"/>
	</g>
	<g>
		<path class="st2" d="M125.125,47.113c-2.348,0.092-4.668,0.301-6.955,0.618c34.917,4.794,61.815,34.741,61.815,70.975
			c0,22.905-10.761,43.283-27.488,56.399v33.838h10.933c4.822,0,8.731-3.909,8.731-8.731v-25.107
			c16.727-13.116,27.488-33.495,27.488-56.399C199.649,78.181,166.005,45.514,125.125,47.113z"/>
	</g>
	<g>
		<path class="st4" d="M88.392,107.585c-4.431,1.954-8.209,5.442-10.421,10.174c-4.85,10.377-0.369,22.721,10.008,27.571
			c10.377,4.85,22.721,0.37,27.571-10.007c2.212-4.732,2.464-9.868,1.121-14.521L88.392,107.585z"/>
	</g>
	<g>
		<path class="st4" d="M167.608,107.585c4.431,1.954,8.209,5.442,10.421,10.174c4.85,10.377,0.369,22.721-10.008,27.571
			c-10.377,4.85-22.721,0.37-27.571-10.007c-2.212-4.732-2.464-9.868-1.121-14.521L167.608,107.585z"/>
	</g>
	<g>
		<path class="st4" d="M128,167.564h-5.463c-4.163,0-6.764-4.506-4.683-8.111l2.732-4.732l2.732-4.731
			c2.081-3.605,7.285-3.605,9.366,0l2.732,4.731l2.732,4.732c2.081,3.605-0.52,8.111-4.683,8.111H128z"/>
	</g>
	<g>
		<path class="st6" d="M96.747,150.286C96.746,150.286,96.747,150.286,96.747,150.286c-3.484,0-6.861-0.753-10.039-2.238
			c-11.858-5.542-16.997-19.7-11.455-31.559c2.426-5.19,6.662-9.327,11.929-11.649c0.793-0.349,1.697-0.339,2.48,0.027
			l28.278,13.217c0.784,0.367,1.371,1.054,1.611,1.885c1.598,5.53,1.142,11.434-1.284,16.624
			C114.38,144.91,105.932,150.286,96.747,150.286z M88.414,110.907c-3.386,1.802-6.101,4.646-7.726,8.123
			c-4.142,8.861-0.302,19.44,8.561,23.583c2.376,1.11,4.898,1.674,7.498,1.674c6.865,0,13.179-4.017,16.085-10.234
			c1.624-3.476,2.064-7.383,1.275-11.136L88.414,110.907z"/>
	</g>
	<g>
		<path class="st6" d="M159.253,150.286c-9.185,0-17.632-5.375-21.521-13.693c-2.425-5.191-2.881-11.095-1.284-16.624
			c0.24-0.832,0.827-1.519,1.611-1.885l28.278-13.217c0.784-0.367,1.688-0.376,2.48-0.027c5.267,2.322,9.503,6.458,11.929,11.648
			c5.542,11.859,0.403,26.017-11.455,31.559C166.114,149.533,162.737,150.286,159.253,150.286z M141.893,122.916
			c-0.789,3.752-0.349,7.66,1.275,11.137c2.906,6.216,9.22,10.233,16.085,10.233c2.6,0,5.122-0.563,7.498-1.674
			c8.862-4.142,12.702-14.721,8.561-23.583c-1.625-3.476-4.34-6.32-7.726-8.122L141.893,122.916z"/>
	</g>
	<g>
		<path class="st6" d="M133.464,170.563h-10.928c-3.039,0-5.761-1.571-7.28-4.204s-1.521-5.775,0-8.407l5.464-9.464
			c1.52-2.632,4.241-4.203,7.28-4.203s5.761,1.571,7.281,4.204l5.464,9.463c1.52,2.632,1.519,5.775-0.001,8.407
			S136.503,170.563,133.464,170.563z M128,150.286c-0.418,0-1.457,0.117-2.084,1.204l-5.464,9.463c-0.628,1.086-0.209,2.045,0,2.407
			s0.83,1.204,2.084,1.204h10.928c1.254,0,1.875-0.842,2.084-1.204s0.628-1.321,0.001-2.407l-5.464-9.463
			C129.457,150.403,128.418,150.286,128,150.286z"/>
	</g>
	<g>
		<path class="st6" d="M105.856,211.943c-1.657,0-3-1.343-3-3v-20.841c0-1.657,1.343-3,3-3s3,1.343,3,3v20.841
			C108.856,210.6,107.514,211.943,105.856,211.943z"/>
	</g>
	<g>
		<path class="st6" d="M128,211.943c-1.657,0-3-1.343-3-3v-20.841c0-1.657,1.343-3,3-3s3,1.343,3,3v20.841
			C131,210.6,129.657,211.943,128,211.943z"/>
	</g>
	<g>
		<path class="st6" d="M150.144,211.943c-1.657,0-3-1.343-3-3v-20.841c0-1.657,1.343-3,3-3s3,1.343,3,3v20.841
			C153.144,210.6,151.801,211.943,150.144,211.943z"/>
	</g>
	<g>
		<path class="st6" d="M163.431,211.943H92.57c-6.469,0-11.731-5.262-11.731-11.73v-23.666
			c-18.216-14.875-28.441-37.628-27.415-61.171C55.1,76.921,86.543,45.62,125.008,44.116c42.493-1.685,77.641,32.435,77.641,74.59
			c0,22.583-9.999,43.58-27.487,57.841v23.666C175.161,206.681,169.898,211.943,163.431,211.943z M128,50.057
			c-0.916,0-1.834,0.018-2.758,0.054c-35.37,1.384-64.283,30.166-65.824,65.525c-0.963,22.104,8.858,43.453,26.272,57.108
			c0.725,0.569,1.148,1.439,1.148,2.361v25.107c0,3.16,2.571,5.73,5.731,5.73h70.86c3.16,0,5.73-2.571,5.73-5.73v-25.107
			c0-0.922,0.424-1.792,1.148-2.361c16.739-13.125,26.339-32.821,26.339-54.039C196.648,80.853,165.853,50.057,128,50.057z"/>
	</g>
</g>
</svg>
